# xmcd
# 
# Track frame offsets:
#     150
#     28393
#     55837
#     78914
#     90661
#     104518
#     127681
#     152733
# 
# Disc length: 2111
# 
# Revision: 1
# Processed by: cddbd v1.5.2PL0 Copyright (c) Steve Scherf et al.
# Submitted via: fre:ac v1.0.27
# 
DISCID=5b083d08
DTITLE=Marshall Tucker Band - Marshall Tucker Band
DYEAR=1973
DGENRE=Southern Rock
TTITLE0=Take the Highway
TTITLE1=Can't You See
TTITLE2=Losing You
TTITLE3=Hillbilly Band
TTITLE4=See You Later, I'm Gone
TTITLE5=Ramblin'
TTITLE6=My Jesus Told Me So
TTITLE7=AB's Song
EXTD=YEAR=1973\nLABEL=AJK Music\nID=A 618-2\nUPC=0 22775-6182-2 8\nSPARS=AAD YEAR: 1973
EXTT0=
EXTT1=
EXTT2=
EXTT3=
EXTT4=
EXTT5=
EXTT6=
EXTT7=
PLAYORDER=
